<svg xmlns="http://www.w3.org/2000/svg" xmlns:xlink="http://www.w3.org/1999/xlink" width="62" zoomAndPan="magnify" viewBox="0 0 46.5 33.749999" height="45" preserveAspectRatio="xMidYMid meet" version="1.0"><defs><clipPath id="632defbc68"><path d="M 7.78125 0.0546875 L 38.53125 0.0546875 L 38.53125 33.445312 L 7.78125 33.445312 Z M 7.78125 0.0546875 " clip-rule="nonzero"/></clipPath></defs><g clip-path="url(#632defbc68)"><path fill="#e6b3b2" d="M 33.359375 15.921875 C 33.011719 15.714844 32.636719 15.546875 32.257812 15.402344 C 27.1875 13.460938 22.019531 13.195312 16.78125 14.574219 C 15.609375 14.882812 14.488281 15.386719 13.355469 15.839844 C 13.175781 15.914062 13.035156 16.175781 12.957031 16.378906 C 12.929688 16.453125 13.136719 16.710938 13.261719 16.730469 C 14.617188 16.960938 15.273438 17.882812 15.609375 19.175781 C 16.191406 18.96875 16.976562 19.65625 17.269531 18.605469 C 17.585938 17.46875 18.425781 16.90625 19.527344 16.765625 C 20.515625 16.640625 21.664062 17.363281 22.027344 18.410156 C 22.273438 19.113281 22.675781 19.1875 23.289062 19.1875 C 23.910156 19.1875 24.304688 19.109375 24.542969 18.402344 C 24.914062 17.300781 25.859375 16.78125 26.957031 16.777344 C 27.910156 16.773438 28.832031 17.242188 29.113281 18.179688 C 29.183594 18.421875 29.269531 18.609375 29.371094 18.753906 C 29.734375 19.273438 30.277344 19.242188 30.9375 19.101562 C 31.035156 18.855469 31.121094 18.648438 31.195312 18.46875 C 31.199219 18.464844 31.203125 18.460938 31.203125 18.453125 C 31.230469 18.390625 31.257812 18.328125 31.285156 18.269531 C 31.5625 17.679688 31.804688 17.460938 32.507812 17.117188 C 32.730469 17.007812 32.996094 16.886719 33.328125 16.738281 C 33.847656 16.503906 33.789062 16.183594 33.359375 15.921875 Z M 34.320312 18.386719 C 32.246094 23.246094 30.019531 28.042969 26.695312 32.207031 C 26.359375 32.625 26.011719 33.03125 25.636719 33.40625 C 25.238281 33.804688 24.894531 33.753906 24.785156 33.15625 C 24.695312 32.667969 24.671875 32.164062 24.628906 31.773438 C 24.785156 29.777344 24.996094 27.894531 25.050781 26.011719 C 25.082031 24.796875 25.027344 23.542969 24.757812 22.363281 C 24.285156 20.292969 22.675781 19.84375 21.152344 21.304688 C 20.644531 21.789062 20.226562 22.425781 19.9375 23.066406 C 19.15625 24.816406 18.472656 26.609375 17.726562 28.375 C 17.601562 28.667969 17.351562 28.90625 17.160156 29.171875 C 16.898438 28.964844 16.535156 28.8125 16.390625 28.542969 C 15.460938 26.835938 14.484375 25.144531 13.703125 23.367188 C 12.789062 21.300781 12.078125 19.148438 11.230469 17.050781 C 10.96875 16.398438 11.1875 16.09375 11.734375 15.78125 C 13.96875 14.496094 16.386719 13.789062 18.917969 13.441406 C 23.667969 12.792969 28.367188 12.980469 32.851562 14.839844 C 35.910156 16.105469 35.472656 15.691406 34.320312 18.386719 Z M 38.523438 17.273438 C 31.46875 8.96875 14.363281 9.308594 7.785156 17.28125 C 8.375 16.457031 8.910156 15.585938 9.574219 14.828125 C 9.980469 14.363281 10.0625 13.953125 9.925781 13.390625 C 9.285156 10.773438 9.089844 8.109375 9.246094 5.425781 C 9.429688 2.285156 11.625 0.761719 14.625 1.699219 C 15.429688 1.949219 16.226562 2.253906 16.980469 2.628906 C 18.648438 3.453125 20.394531 3.808594 22.25 3.707031 C 22.535156 3.691406 22.832031 3.882812 23.121094 3.976562 C 22.925781 4.230469 22.78125 4.625 22.527344 4.714844 C 21.414062 5.105469 20.273438 5.429688 19.132812 5.730469 C 18.683594 5.847656 18.191406 5.808594 17.742188 5.921875 C 17.460938 5.988281 17.214844 6.207031 16.953125 6.359375 C 17.207031 6.492188 17.460938 6.742188 17.707031 6.730469 C 19.011719 6.675781 20.324219 6.617188 21.621094 6.449219 C 23.675781 6.183594 25.390625 5.191406 26.878906 3.761719 C 27.601562 3.066406 28.347656 2.390625 29.113281 1.742188 C 31.089844 0.0546875 33.886719 0.324219 35.546875 2.316406 C 37.113281 4.191406 37.261719 6.390625 36.949219 8.65625 C 36.75 10.117188 36.421875 11.5625 36.070312 12.996094 C 35.914062 13.636719 35.957031 14.054688 36.445312 14.570312 C 37.222656 15.394531 37.839844 16.367188 38.523438 17.273438 " fill-opacity="1" fill-rule="nonzero"/></g></svg>