<svg xmlns="http://www.w3.org/2000/svg" xmlns:xlink="http://www.w3.org/1999/xlink" width="178" zoomAndPan="magnify" viewBox="0 0 133.5 33.749998" height="45" preserveAspectRatio="xMidYMid meet" version="1.0"><defs><g/><clipPath id="5b3b7fe667"><path d="M 3.605469 0 L 34.242188 0 L 34.242188 33.5 L 3.605469 33.5 Z M 3.605469 0 " clip-rule="nonzero"/></clipPath></defs><g fill="#e6b3b2" fill-opacity="1"><g transform="translate(40.833615, 20.923657)"><g><path d="M 4.65625 -8.921875 C 5.082031 -8.921875 5.445312 -8.882812 5.75 -8.8125 C 6.0625 -8.75 6.320312 -8.65625 6.53125 -8.53125 C 6.738281 -8.40625 6.894531 -8.257812 7 -8.09375 C 7.101562 -7.925781 7.15625 -7.742188 7.15625 -7.546875 C 7.15625 -7.410156 7.125 -7.289062 7.0625 -7.1875 C 7.007812 -7.082031 6.9375 -6.988281 6.84375 -6.90625 C 6.75 -6.832031 6.632812 -6.773438 6.5 -6.734375 C 6.375 -6.703125 6.234375 -6.6875 6.078125 -6.6875 C 6.078125 -6.875 6.050781 -7.0625 6 -7.25 C 5.945312 -7.4375 5.863281 -7.601562 5.75 -7.75 C 5.644531 -7.90625 5.5 -8.03125 5.3125 -8.125 C 5.125 -8.21875 4.898438 -8.265625 4.640625 -8.265625 C 4.171875 -8.265625 3.773438 -8.179688 3.453125 -8.015625 C 3.128906 -7.847656 2.863281 -7.597656 2.65625 -7.265625 C 2.445312 -6.941406 2.296875 -6.539062 2.203125 -6.0625 C 2.117188 -5.582031 2.078125 -5.03125 2.078125 -4.40625 C 2.078125 -3.863281 2.125 -3.363281 2.21875 -2.90625 C 2.3125 -2.445312 2.460938 -2.050781 2.671875 -1.71875 C 2.878906 -1.394531 3.144531 -1.140625 3.46875 -0.953125 C 3.789062 -0.773438 4.179688 -0.6875 4.640625 -0.6875 C 4.941406 -0.6875 5.207031 -0.710938 5.4375 -0.765625 C 5.664062 -0.828125 5.867188 -0.90625 6.046875 -1 C 6.222656 -1.101562 6.378906 -1.21875 6.515625 -1.34375 C 6.648438 -1.46875 6.769531 -1.597656 6.875 -1.734375 C 6.9375 -1.691406 6.988281 -1.628906 7.03125 -1.546875 C 7.082031 -1.472656 7.109375 -1.378906 7.109375 -1.265625 C 7.109375 -1.097656 7.050781 -0.929688 6.9375 -0.765625 C 6.832031 -0.609375 6.671875 -0.460938 6.453125 -0.328125 C 6.242188 -0.203125 5.972656 -0.09375 5.640625 0 C 5.304688 0.0820312 4.910156 0.125 4.453125 0.125 C 3.835938 0.125 3.296875 0.015625 2.828125 -0.203125 C 2.359375 -0.421875 1.96875 -0.726562 1.65625 -1.125 C 1.34375 -1.519531 1.101562 -1.992188 0.9375 -2.546875 C 0.78125 -3.109375 0.703125 -3.726562 0.703125 -4.40625 C 0.703125 -5.070312 0.785156 -5.679688 0.953125 -6.234375 C 1.117188 -6.796875 1.367188 -7.273438 1.703125 -7.671875 C 2.035156 -8.066406 2.445312 -8.375 2.9375 -8.59375 C 3.4375 -8.8125 4.007812 -8.921875 4.65625 -8.921875 Z M 4.65625 -8.921875 "/></g></g></g><g fill="#e6b3b2" fill-opacity="1"><g transform="translate(48.394241, 20.923657)"><g><path d="M 3.390625 -6.0625 C 2.929688 -6.0625 2.578125 -5.875 2.328125 -5.5 C 2.085938 -5.132812 1.941406 -4.59375 1.890625 -3.875 L 4.734375 -3.875 C 4.734375 -4.207031 4.707031 -4.503906 4.65625 -4.765625 C 4.613281 -5.035156 4.539062 -5.265625 4.4375 -5.453125 C 4.332031 -5.648438 4.191406 -5.800781 4.015625 -5.90625 C 3.847656 -6.007812 3.640625 -6.0625 3.390625 -6.0625 Z M 3.546875 0.125 C 3.097656 0.125 2.695312 0.0507812 2.34375 -0.09375 C 1.988281 -0.25 1.6875 -0.472656 1.4375 -0.765625 C 1.195312 -1.054688 1.007812 -1.410156 0.875 -1.828125 C 0.75 -2.242188 0.6875 -2.71875 0.6875 -3.25 C 0.6875 -4.40625 0.921875 -5.273438 1.390625 -5.859375 C 1.859375 -6.441406 2.53125 -6.734375 3.40625 -6.734375 C 3.8125 -6.734375 4.171875 -6.671875 4.484375 -6.546875 C 4.796875 -6.421875 5.0625 -6.234375 5.28125 -5.984375 C 5.507812 -5.734375 5.679688 -5.425781 5.796875 -5.0625 C 5.921875 -4.695312 5.984375 -4.269531 5.984375 -3.78125 L 5.984375 -3.21875 L 1.875 -3.21875 C 1.882812 -2.769531 1.925781 -2.382812 2 -2.0625 C 2.082031 -1.738281 2.203125 -1.472656 2.359375 -1.265625 C 2.515625 -1.054688 2.703125 -0.898438 2.921875 -0.796875 C 3.148438 -0.703125 3.410156 -0.65625 3.703125 -0.65625 C 3.921875 -0.65625 4.117188 -0.675781 4.296875 -0.71875 C 4.484375 -0.769531 4.648438 -0.835938 4.796875 -0.921875 C 4.941406 -1.003906 5.070312 -1.09375 5.1875 -1.1875 C 5.300781 -1.289062 5.394531 -1.398438 5.46875 -1.515625 C 5.53125 -1.492188 5.582031 -1.441406 5.625 -1.359375 C 5.675781 -1.285156 5.703125 -1.195312 5.703125 -1.09375 C 5.703125 -0.96875 5.65625 -0.832031 5.5625 -0.6875 C 5.476562 -0.550781 5.347656 -0.421875 5.171875 -0.296875 C 4.992188 -0.179688 4.769531 -0.0820312 4.5 0 C 4.226562 0.0820312 3.910156 0.125 3.546875 0.125 Z M 3.546875 0.125 "/></g></g></g><g fill="#e6b3b2" fill-opacity="1"><g transform="translate(54.986476, 20.923657)"><g><path d="M 3.484375 0.125 C 3.078125 0.125 2.703125 0.0625 2.359375 -0.0625 C 2.015625 -0.195312 1.71875 -0.398438 1.46875 -0.671875 C 1.21875 -0.941406 1.023438 -1.289062 0.890625 -1.71875 C 0.753906 -2.144531 0.6875 -2.660156 0.6875 -3.265625 C 0.6875 -3.921875 0.753906 -4.472656 0.890625 -4.921875 C 1.023438 -5.367188 1.21875 -5.722656 1.46875 -5.984375 C 1.71875 -6.253906 2.007812 -6.445312 2.34375 -6.5625 C 2.675781 -6.675781 3.035156 -6.734375 3.421875 -6.734375 C 3.679688 -6.734375 3.9375 -6.707031 4.1875 -6.65625 C 4.445312 -6.601562 4.675781 -6.523438 4.875 -6.421875 C 5.082031 -6.316406 5.25 -6.1875 5.375 -6.03125 C 5.507812 -5.875 5.578125 -5.6875 5.578125 -5.46875 C 5.578125 -5.1875 5.484375 -4.984375 5.296875 -4.859375 C 5.109375 -4.742188 4.832031 -4.6875 4.46875 -4.6875 C 4.46875 -4.882812 4.453125 -5.066406 4.421875 -5.234375 C 4.390625 -5.410156 4.332031 -5.5625 4.25 -5.6875 C 4.175781 -5.820312 4.070312 -5.925781 3.9375 -6 C 3.800781 -6.070312 3.628906 -6.109375 3.421875 -6.109375 C 3.179688 -6.109375 2.96875 -6.0625 2.78125 -5.96875 C 2.59375 -5.882812 2.429688 -5.734375 2.296875 -5.515625 C 2.160156 -5.304688 2.054688 -5.019531 1.984375 -4.65625 C 1.910156 -4.289062 1.875 -3.832031 1.875 -3.28125 C 1.875 -2.40625 2.019531 -1.753906 2.3125 -1.328125 C 2.601562 -0.898438 3.078125 -0.6875 3.734375 -0.6875 C 4.117188 -0.6875 4.453125 -0.765625 4.734375 -0.921875 C 5.023438 -1.078125 5.238281 -1.285156 5.375 -1.546875 C 5.4375 -1.492188 5.488281 -1.425781 5.53125 -1.34375 C 5.570312 -1.269531 5.59375 -1.175781 5.59375 -1.0625 C 5.59375 -0.914062 5.546875 -0.769531 5.453125 -0.625 C 5.367188 -0.488281 5.238281 -0.363281 5.0625 -0.25 C 4.882812 -0.144531 4.664062 -0.0546875 4.40625 0.015625 C 4.144531 0.0859375 3.835938 0.125 3.484375 0.125 Z M 3.484375 0.125 "/></g></g></g><g fill="#e6b3b2" fill-opacity="1"><g transform="translate(61.049407, 20.923657)"><g><path d="M 0.453125 -0.515625 C 0.585938 -0.515625 0.710938 -0.523438 0.828125 -0.546875 C 0.953125 -0.566406 1.0625 -0.601562 1.15625 -0.65625 C 1.25 -0.707031 1.320312 -0.789062 1.375 -0.90625 C 1.425781 -1.019531 1.453125 -1.164062 1.453125 -1.34375 L 1.453125 -5.25 C 1.453125 -5.425781 1.425781 -5.566406 1.375 -5.671875 C 1.320312 -5.785156 1.25 -5.875 1.15625 -5.9375 C 1.0625 -6 0.953125 -6.039062 0.828125 -6.0625 C 0.710938 -6.082031 0.585938 -6.09375 0.453125 -6.09375 L 0.40625 -6.09375 L 0.40625 -6.609375 L 2.609375 -6.609375 L 2.609375 -1.40625 C 2.609375 -1.207031 2.632812 -1.050781 2.6875 -0.9375 C 2.75 -0.820312 2.820312 -0.734375 2.90625 -0.671875 C 3 -0.609375 3.109375 -0.566406 3.234375 -0.546875 C 3.359375 -0.523438 3.488281 -0.515625 3.625 -0.515625 L 3.78125 -0.515625 L 3.78125 0 L 0.28125 0 L 0.28125 -0.515625 Z M 1.359375 -7.640625 C 1.441406 -7.753906 1.53125 -7.882812 1.625 -8.03125 C 1.726562 -8.1875 1.828125 -8.34375 1.921875 -8.5 C 2.015625 -8.664062 2.101562 -8.828125 2.1875 -8.984375 C 2.28125 -9.148438 2.359375 -9.300781 2.421875 -9.4375 L 3.75 -9.4375 L 3.75 -9.3125 C 3.664062 -9.207031 3.550781 -9.070312 3.40625 -8.90625 C 3.257812 -8.75 3.09375 -8.582031 2.90625 -8.40625 C 2.726562 -8.226562 2.539062 -8.054688 2.34375 -7.890625 C 2.15625 -7.722656 1.984375 -7.582031 1.828125 -7.46875 L 1.359375 -7.46875 Z M 1.359375 -7.640625 "/></g></g></g><g fill="#e6b3b2" fill-opacity="1"><g transform="translate(64.989115, 20.923657)"><g><path d="M 0.3125 -0.515625 C 0.457031 -0.515625 0.585938 -0.523438 0.703125 -0.546875 C 0.828125 -0.566406 0.9375 -0.609375 1.03125 -0.671875 C 1.125 -0.734375 1.195312 -0.820312 1.25 -0.9375 C 1.300781 -1.050781 1.328125 -1.207031 1.328125 -1.40625 L 1.328125 -8.015625 C 1.328125 -8.191406 1.300781 -8.332031 1.25 -8.4375 C 1.195312 -8.550781 1.125 -8.640625 1.03125 -8.703125 C 0.9375 -8.765625 0.828125 -8.800781 0.703125 -8.8125 C 0.585938 -8.832031 0.457031 -8.84375 0.3125 -8.84375 L 0.15625 -8.84375 L 0.15625 -9.359375 L 2.484375 -9.359375 L 2.484375 -1.40625 C 2.484375 -1.207031 2.507812 -1.050781 2.5625 -0.9375 C 2.625 -0.820312 2.695312 -0.734375 2.78125 -0.671875 C 2.875 -0.609375 2.984375 -0.566406 3.109375 -0.546875 C 3.234375 -0.523438 3.363281 -0.515625 3.5 -0.515625 L 3.65625 -0.515625 L 3.65625 0 L 0.15625 0 L 0.15625 -0.515625 Z M 0.3125 -0.515625 "/></g></g></g><g fill="#e6b3b2" fill-opacity="1"><g transform="translate(68.808527, 20.923657)"><g><path d="M 0.453125 -0.515625 C 0.585938 -0.515625 0.710938 -0.523438 0.828125 -0.546875 C 0.953125 -0.566406 1.0625 -0.601562 1.15625 -0.65625 C 1.25 -0.707031 1.320312 -0.789062 1.375 -0.90625 C 1.425781 -1.019531 1.453125 -1.164062 1.453125 -1.34375 L 1.453125 -5.25 C 1.453125 -5.425781 1.425781 -5.566406 1.375 -5.671875 C 1.320312 -5.785156 1.25 -5.875 1.15625 -5.9375 C 1.0625 -6 0.953125 -6.039062 0.828125 -6.0625 C 0.710938 -6.082031 0.585938 -6.09375 0.453125 -6.09375 L 0.40625 -6.09375 L 0.40625 -6.609375 L 2.609375 -6.609375 L 2.609375 -1.40625 C 2.609375 -1.207031 2.632812 -1.050781 2.6875 -0.9375 C 2.75 -0.820312 2.820312 -0.734375 2.90625 -0.671875 C 3 -0.609375 3.109375 -0.566406 3.234375 -0.546875 C 3.359375 -0.523438 3.488281 -0.515625 3.625 -0.515625 L 3.78125 -0.515625 L 3.78125 0 L 0.28125 0 L 0.28125 -0.515625 Z M 1.28125 -8.609375 C 1.28125 -8.753906 1.296875 -8.875 1.328125 -8.96875 C 1.367188 -9.0625 1.421875 -9.140625 1.484375 -9.203125 C 1.546875 -9.265625 1.617188 -9.304688 1.703125 -9.328125 C 1.796875 -9.347656 1.890625 -9.359375 1.984375 -9.359375 C 2.078125 -9.359375 2.164062 -9.347656 2.25 -9.328125 C 2.34375 -9.304688 2.421875 -9.265625 2.484375 -9.203125 C 2.546875 -9.140625 2.59375 -9.0625 2.625 -8.96875 C 2.664062 -8.875 2.6875 -8.753906 2.6875 -8.609375 C 2.6875 -8.460938 2.664062 -8.34375 2.625 -8.25 C 2.59375 -8.15625 2.546875 -8.078125 2.484375 -8.015625 C 2.421875 -7.953125 2.34375 -7.90625 2.25 -7.875 C 2.164062 -7.851562 2.078125 -7.84375 1.984375 -7.84375 C 1.890625 -7.84375 1.796875 -7.851562 1.703125 -7.875 C 1.617188 -7.90625 1.546875 -7.953125 1.484375 -8.015625 C 1.421875 -8.078125 1.367188 -8.15625 1.328125 -8.25 C 1.296875 -8.34375 1.28125 -8.460938 1.28125 -8.609375 Z M 1.28125 -8.609375 "/></g></g></g><g fill="#e6b3b2" fill-opacity="1"><g transform="translate(72.748236, 20.923657)"><g><path d="M 1.8125 -1.78125 C 1.8125 -1.394531 1.890625 -1.109375 2.046875 -0.921875 C 2.210938 -0.734375 2.46875 -0.640625 2.8125 -0.640625 C 3.0625 -0.640625 3.285156 -0.675781 3.484375 -0.75 C 3.691406 -0.832031 3.863281 -0.945312 4 -1.09375 C 4.144531 -1.25 4.253906 -1.429688 4.328125 -1.640625 C 4.410156 -1.859375 4.453125 -2.097656 4.453125 -2.359375 L 4.453125 -3.359375 L 3.65625 -3.3125 C 3.3125 -3.300781 3.019531 -3.257812 2.78125 -3.1875 C 2.550781 -3.113281 2.363281 -3.015625 2.21875 -2.890625 C 2.070312 -2.765625 1.96875 -2.609375 1.90625 -2.421875 C 1.84375 -2.242188 1.8125 -2.03125 1.8125 -1.78125 Z M 3.3125 -6.109375 C 3.070312 -6.109375 2.878906 -6.078125 2.734375 -6.015625 C 2.585938 -5.953125 2.472656 -5.859375 2.390625 -5.734375 C 2.304688 -5.617188 2.25 -5.476562 2.21875 -5.3125 C 2.1875 -5.144531 2.171875 -4.96875 2.171875 -4.78125 C 1.835938 -4.78125 1.578125 -4.835938 1.390625 -4.953125 C 1.210938 -5.066406 1.125 -5.265625 1.125 -5.546875 C 1.125 -5.765625 1.179688 -5.945312 1.296875 -6.09375 C 1.421875 -6.238281 1.582031 -6.359375 1.78125 -6.453125 C 1.988281 -6.546875 2.222656 -6.613281 2.484375 -6.65625 C 2.753906 -6.707031 3.046875 -6.734375 3.359375 -6.734375 C 3.734375 -6.734375 4.0625 -6.691406 4.34375 -6.609375 C 4.625 -6.535156 4.859375 -6.414062 5.046875 -6.25 C 5.234375 -6.082031 5.375 -5.863281 5.46875 -5.59375 C 5.5625 -5.320312 5.609375 -4.988281 5.609375 -4.59375 L 5.609375 -1.40625 C 5.609375 -1.226562 5.617188 -1.082031 5.640625 -0.96875 C 5.671875 -0.863281 5.71875 -0.773438 5.78125 -0.703125 C 5.84375 -0.640625 5.921875 -0.59375 6.015625 -0.5625 C 6.117188 -0.53125 6.238281 -0.515625 6.375 -0.515625 L 6.40625 -0.515625 L 6.40625 0 L 4.75 0 L 4.546875 -1.0625 L 4.453125 -1.0625 C 4.316406 -0.882812 4.1875 -0.722656 4.0625 -0.578125 C 3.945312 -0.441406 3.816406 -0.316406 3.671875 -0.203125 C 3.535156 -0.0976562 3.375 -0.0195312 3.1875 0.03125 C 3 0.09375 2.78125 0.125 2.53125 0.125 C 2.257812 0.125 2.003906 0.0820312 1.765625 0 C 1.535156 -0.0703125 1.332031 -0.191406 1.15625 -0.359375 C 0.988281 -0.523438 0.851562 -0.726562 0.75 -0.96875 C 0.65625 -1.21875 0.609375 -1.507812 0.609375 -1.84375 C 0.609375 -2.5 0.84375 -2.984375 1.3125 -3.296875 C 1.78125 -3.617188 2.484375 -3.796875 3.421875 -3.828125 L 4.453125 -3.859375 L 4.453125 -4.59375 C 4.453125 -4.820312 4.4375 -5.023438 4.40625 -5.203125 C 4.382812 -5.390625 4.332031 -5.550781 4.25 -5.6875 C 4.175781 -5.820312 4.0625 -5.925781 3.90625 -6 C 3.757812 -6.070312 3.5625 -6.109375 3.3125 -6.109375 Z M 3.3125 -6.109375 "/></g></g></g><g fill="#e6b3b2" fill-opacity="1"><g transform="translate(79.683321, 20.923657)"><g/></g></g><g fill="#e6b3b2" fill-opacity="1"><g transform="translate(82.883201, 20.923657)"><g><path d="M 2.484375 -2.9375 L 2.015625 -1.65625 C 1.984375 -1.550781 1.957031 -1.453125 1.9375 -1.359375 C 1.914062 -1.265625 1.90625 -1.1875 1.90625 -1.125 C 1.90625 -0.914062 1.972656 -0.757812 2.109375 -0.65625 C 2.242188 -0.5625 2.453125 -0.515625 2.734375 -0.515625 L 3.015625 -0.515625 L 3.015625 0 L 0 0 L 0 -0.515625 L 0.234375 -0.515625 C 0.359375 -0.515625 0.460938 -0.523438 0.546875 -0.546875 C 0.628906 -0.578125 0.703125 -0.628906 0.765625 -0.703125 C 0.835938 -0.773438 0.90625 -0.875 0.96875 -1 C 1.03125 -1.125 1.097656 -1.285156 1.171875 -1.484375 L 3.90625 -8.796875 L 4.875 -8.796875 L 7.65625 -1.171875 C 7.707031 -1.046875 7.753906 -0.941406 7.796875 -0.859375 C 7.847656 -0.773438 7.90625 -0.707031 7.96875 -0.65625 C 8.039062 -0.601562 8.117188 -0.566406 8.203125 -0.546875 C 8.296875 -0.523438 8.40625 -0.515625 8.53125 -0.515625 L 8.6875 -0.515625 L 8.6875 0 L 5.296875 0 L 5.296875 -0.515625 L 5.59375 -0.515625 C 6.082031 -0.515625 6.328125 -0.710938 6.328125 -1.109375 C 6.328125 -1.171875 6.316406 -1.238281 6.296875 -1.3125 C 6.273438 -1.382812 6.25 -1.46875 6.21875 -1.5625 L 5.734375 -2.9375 Z M 4.75 -5.71875 C 4.613281 -6.082031 4.492188 -6.421875 4.390625 -6.734375 C 4.285156 -7.054688 4.195312 -7.367188 4.125 -7.671875 C 4.101562 -7.523438 4.070312 -7.378906 4.03125 -7.234375 C 3.988281 -7.097656 3.945312 -6.957031 3.90625 -6.8125 C 3.863281 -6.664062 3.8125 -6.515625 3.75 -6.359375 C 3.695312 -6.203125 3.632812 -6.023438 3.5625 -5.828125 L 2.734375 -3.5625 L 5.515625 -3.5625 Z M 4.75 -5.71875 "/></g></g></g><g fill="#e6b3b2" fill-opacity="1"><g transform="translate(91.568591, 20.923657)"><g><path d="M 6.484375 -6.34375 C 6.484375 -6.257812 6.46875 -6.175781 6.4375 -6.09375 C 6.414062 -6.019531 6.378906 -5.953125 6.328125 -5.890625 C 6.273438 -5.835938 6.207031 -5.789062 6.125 -5.75 C 6.039062 -5.71875 5.941406 -5.703125 5.828125 -5.703125 C 5.828125 -5.753906 5.820312 -5.800781 5.8125 -5.84375 C 5.800781 -5.894531 5.78125 -5.941406 5.75 -5.984375 C 5.71875 -6.023438 5.675781 -6.054688 5.625 -6.078125 C 5.570312 -6.109375 5.503906 -6.125 5.421875 -6.125 C 5.316406 -6.125 5.222656 -6.113281 5.140625 -6.09375 C 5.054688 -6.070312 4.972656 -6.035156 4.890625 -5.984375 C 5.035156 -5.804688 5.148438 -5.597656 5.234375 -5.359375 C 5.328125 -5.128906 5.375 -4.835938 5.375 -4.484375 C 5.375 -4.179688 5.328125 -3.898438 5.234375 -3.640625 C 5.140625 -3.378906 5 -3.15625 4.8125 -2.96875 C 4.632812 -2.78125 4.40625 -2.628906 4.125 -2.515625 C 3.851562 -2.410156 3.53125 -2.359375 3.15625 -2.359375 C 3.101562 -2.359375 3.046875 -2.359375 2.984375 -2.359375 C 2.929688 -2.367188 2.875 -2.375 2.8125 -2.375 C 2.75 -2.375 2.691406 -2.375 2.640625 -2.375 C 2.585938 -2.382812 2.546875 -2.394531 2.515625 -2.40625 C 2.429688 -2.363281 2.351562 -2.316406 2.28125 -2.265625 C 2.207031 -2.222656 2.144531 -2.171875 2.09375 -2.109375 C 2.039062 -2.046875 2 -1.972656 1.96875 -1.890625 C 1.9375 -1.816406 1.921875 -1.738281 1.921875 -1.65625 C 1.921875 -1.550781 1.9375 -1.46875 1.96875 -1.40625 C 2.007812 -1.34375 2.0625 -1.296875 2.125 -1.265625 C 2.195312 -1.234375 2.28125 -1.210938 2.375 -1.203125 C 2.46875 -1.191406 2.570312 -1.1875 2.6875 -1.1875 L 4.078125 -1.1875 C 4.453125 -1.1875 4.765625 -1.140625 5.015625 -1.046875 C 5.273438 -0.953125 5.484375 -0.820312 5.640625 -0.65625 C 5.804688 -0.5 5.925781 -0.304688 6 -0.078125 C 6.070312 0.148438 6.109375 0.394531 6.109375 0.65625 C 6.109375 1.007812 6.039062 1.328125 5.90625 1.609375 C 5.78125 1.898438 5.582031 2.144531 5.3125 2.34375 C 5.050781 2.539062 4.710938 2.691406 4.296875 2.796875 C 3.890625 2.910156 3.40625 2.96875 2.84375 2.96875 C 1.988281 2.96875 1.347656 2.804688 0.921875 2.484375 C 0.492188 2.171875 0.28125 1.726562 0.28125 1.15625 C 0.28125 0.914062 0.320312 0.707031 0.40625 0.53125 C 0.488281 0.351562 0.601562 0.195312 0.75 0.0625 C 0.894531 -0.0625 1.054688 -0.164062 1.234375 -0.25 C 1.421875 -0.332031 1.617188 -0.390625 1.828125 -0.421875 C 1.742188 -0.453125 1.660156 -0.5 1.578125 -0.5625 C 1.492188 -0.625 1.421875 -0.695312 1.359375 -0.78125 C 1.296875 -0.863281 1.242188 -0.957031 1.203125 -1.0625 C 1.160156 -1.175781 1.140625 -1.300781 1.140625 -1.4375 C 1.140625 -1.675781 1.203125 -1.882812 1.328125 -2.0625 C 1.460938 -2.238281 1.671875 -2.414062 1.953125 -2.59375 C 1.773438 -2.664062 1.613281 -2.765625 1.46875 -2.890625 C 1.332031 -3.015625 1.21875 -3.15625 1.125 -3.3125 C 1.03125 -3.476562 0.957031 -3.65625 0.90625 -3.84375 C 0.863281 -4.039062 0.84375 -4.242188 0.84375 -4.453125 C 0.84375 -4.804688 0.890625 -5.125 0.984375 -5.40625 C 1.078125 -5.6875 1.21875 -5.925781 1.40625 -6.125 C 1.601562 -6.320312 1.847656 -6.472656 2.140625 -6.578125 C 2.429688 -6.679688 2.769531 -6.734375 3.15625 -6.734375 C 3.300781 -6.734375 3.445312 -6.71875 3.59375 -6.6875 C 3.738281 -6.664062 3.867188 -6.632812 3.984375 -6.59375 C 4.109375 -6.5625 4.21875 -6.519531 4.3125 -6.46875 C 4.414062 -6.425781 4.5 -6.378906 4.5625 -6.328125 C 4.625 -6.390625 4.691406 -6.457031 4.765625 -6.53125 C 4.847656 -6.613281 4.9375 -6.6875 5.03125 -6.75 C 5.132812 -6.820312 5.242188 -6.878906 5.359375 -6.921875 C 5.484375 -6.960938 5.613281 -6.984375 5.75 -6.984375 C 5.875 -6.984375 5.984375 -6.96875 6.078125 -6.9375 C 6.171875 -6.90625 6.242188 -6.859375 6.296875 -6.796875 C 6.359375 -6.742188 6.40625 -6.675781 6.4375 -6.59375 C 6.46875 -6.519531 6.484375 -6.4375 6.484375 -6.34375 Z M 1.28125 1.078125 C 1.28125 1.265625 1.300781 1.4375 1.34375 1.59375 C 1.394531 1.75 1.476562 1.878906 1.59375 1.984375 C 1.71875 2.097656 1.882812 2.1875 2.09375 2.25 C 2.300781 2.320312 2.5625 2.359375 2.875 2.359375 C 3.3125 2.359375 3.671875 2.316406 3.953125 2.234375 C 4.242188 2.160156 4.472656 2.054688 4.640625 1.921875 C 4.816406 1.796875 4.9375 1.640625 5 1.453125 C 5.070312 1.273438 5.109375 1.078125 5.109375 0.859375 C 5.109375 0.671875 5.078125 0.515625 5.015625 0.390625 C 4.960938 0.265625 4.882812 0.164062 4.78125 0.09375 C 4.675781 0.03125 4.546875 -0.0078125 4.390625 -0.03125 C 4.234375 -0.0625 4.050781 -0.078125 3.84375 -0.078125 L 2.640625 -0.078125 C 2.460938 -0.078125 2.289062 -0.0625 2.125 -0.03125 C 1.96875 -0.0078125 1.828125 0.0390625 1.703125 0.125 C 1.578125 0.21875 1.472656 0.335938 1.390625 0.484375 C 1.316406 0.640625 1.28125 0.835938 1.28125 1.078125 Z M 2 -4.484375 C 2 -3.960938 2.082031 -3.578125 2.25 -3.328125 C 2.425781 -3.085938 2.71875 -2.96875 3.125 -2.96875 C 3.320312 -2.96875 3.488281 -2.992188 3.625 -3.046875 C 3.757812 -3.109375 3.867188 -3.203125 3.953125 -3.328125 C 4.046875 -3.453125 4.113281 -3.609375 4.15625 -3.796875 C 4.195312 -3.992188 4.21875 -4.226562 4.21875 -4.5 C 4.21875 -5.050781 4.128906 -5.457031 3.953125 -5.71875 C 3.785156 -5.988281 3.503906 -6.125 3.109375 -6.125 C 2.710938 -6.125 2.425781 -5.988281 2.25 -5.71875 C 2.082031 -5.445312 2 -5.035156 2 -4.484375 Z M 2 -4.484375 "/></g></g></g><g fill="#e6b3b2" fill-opacity="1"><g transform="translate(98.196915, 20.923657)"><g><path d="M 6.5 -1.34375 C 6.5 -1.164062 6.523438 -1.019531 6.578125 -0.90625 C 6.628906 -0.789062 6.703125 -0.707031 6.796875 -0.65625 C 6.890625 -0.601562 6.992188 -0.566406 7.109375 -0.546875 C 7.234375 -0.523438 7.363281 -0.515625 7.5 -0.515625 L 7.546875 -0.515625 L 7.546875 0 L 5.59375 0 L 5.421875 -1 L 5.359375 -1 C 5.234375 -0.769531 5.09375 -0.582031 4.9375 -0.4375 C 4.789062 -0.289062 4.632812 -0.175781 4.46875 -0.09375 C 4.300781 -0.0078125 4.125 0.046875 3.9375 0.078125 C 3.757812 0.109375 3.566406 0.125 3.359375 0.125 C 3.035156 0.125 2.75 0.078125 2.5 -0.015625 C 2.25 -0.109375 2.035156 -0.253906 1.859375 -0.453125 C 1.679688 -0.648438 1.546875 -0.898438 1.453125 -1.203125 C 1.367188 -1.503906 1.328125 -1.867188 1.328125 -2.296875 L 1.328125 -5.25 C 1.328125 -5.425781 1.300781 -5.566406 1.25 -5.671875 C 1.195312 -5.785156 1.125 -5.875 1.03125 -5.9375 C 0.9375 -6 0.828125 -6.039062 0.703125 -6.0625 C 0.585938 -6.082031 0.457031 -6.09375 0.3125 -6.09375 L 0.28125 -6.09375 L 0.28125 -6.609375 L 2.484375 -6.609375 L 2.484375 -2.359375 C 2.484375 -2.085938 2.503906 -1.847656 2.546875 -1.640625 C 2.597656 -1.429688 2.671875 -1.253906 2.765625 -1.109375 C 2.859375 -0.960938 2.988281 -0.851562 3.15625 -0.78125 C 3.320312 -0.707031 3.53125 -0.671875 3.78125 -0.671875 C 4.0625 -0.671875 4.296875 -0.71875 4.484375 -0.8125 C 4.679688 -0.90625 4.84375 -1.039062 4.96875 -1.21875 C 5.09375 -1.394531 5.1875 -1.601562 5.25 -1.84375 C 5.3125 -2.09375 5.34375 -2.363281 5.34375 -2.65625 L 5.34375 -5.203125 C 5.34375 -5.390625 5.3125 -5.539062 5.25 -5.65625 C 5.195312 -5.78125 5.125 -5.875 5.03125 -5.9375 C 4.945312 -6 4.84375 -6.039062 4.71875 -6.0625 C 4.59375 -6.082031 4.460938 -6.09375 4.328125 -6.09375 L 4.296875 -6.09375 L 4.296875 -6.609375 L 6.5 -6.609375 Z M 6.5 -1.34375 "/></g></g></g><g fill="#e6b3b2" fill-opacity="1"><g transform="translate(106.016172, 20.923657)"><g><path d="M 0.453125 -0.515625 C 0.585938 -0.515625 0.710938 -0.523438 0.828125 -0.546875 C 0.953125 -0.566406 1.0625 -0.601562 1.15625 -0.65625 C 1.25 -0.707031 1.320312 -0.789062 1.375 -0.90625 C 1.425781 -1.019531 1.453125 -1.164062 1.453125 -1.34375 L 1.453125 -5.25 C 1.453125 -5.425781 1.425781 -5.566406 1.375 -5.671875 C 1.320312 -5.785156 1.25 -5.875 1.15625 -5.9375 C 1.0625 -6 0.953125 -6.039062 0.828125 -6.0625 C 0.710938 -6.082031 0.585938 -6.09375 0.453125 -6.09375 L 0.40625 -6.09375 L 0.40625 -6.609375 L 2.609375 -6.609375 L 2.609375 -1.40625 C 2.609375 -1.207031 2.632812 -1.050781 2.6875 -0.9375 C 2.75 -0.820312 2.820312 -0.734375 2.90625 -0.671875 C 3 -0.609375 3.109375 -0.566406 3.234375 -0.546875 C 3.359375 -0.523438 3.488281 -0.515625 3.625 -0.515625 L 3.78125 -0.515625 L 3.78125 0 L 0.28125 0 L 0.28125 -0.515625 Z M 1.28125 -8.609375 C 1.28125 -8.753906 1.296875 -8.875 1.328125 -8.96875 C 1.367188 -9.0625 1.421875 -9.140625 1.484375 -9.203125 C 1.546875 -9.265625 1.617188 -9.304688 1.703125 -9.328125 C 1.796875 -9.347656 1.890625 -9.359375 1.984375 -9.359375 C 2.078125 -9.359375 2.164062 -9.347656 2.25 -9.328125 C 2.34375 -9.304688 2.421875 -9.265625 2.484375 -9.203125 C 2.546875 -9.140625 2.59375 -9.0625 2.625 -8.96875 C 2.664062 -8.875 2.6875 -8.753906 2.6875 -8.609375 C 2.6875 -8.460938 2.664062 -8.34375 2.625 -8.25 C 2.59375 -8.15625 2.546875 -8.078125 2.484375 -8.015625 C 2.421875 -7.953125 2.34375 -7.90625 2.25 -7.875 C 2.164062 -7.851562 2.078125 -7.84375 1.984375 -7.84375 C 1.890625 -7.84375 1.796875 -7.851562 1.703125 -7.875 C 1.617188 -7.90625 1.546875 -7.953125 1.484375 -8.015625 C 1.421875 -8.078125 1.367188 -8.15625 1.328125 -8.25 C 1.296875 -8.34375 1.28125 -8.460938 1.28125 -8.609375 Z M 1.28125 -8.609375 "/></g></g></g><g fill="#e6b3b2" fill-opacity="1"><g transform="translate(109.95588, 20.923657)"><g><path d="M 1.8125 -1.78125 C 1.8125 -1.394531 1.890625 -1.109375 2.046875 -0.921875 C 2.210938 -0.734375 2.46875 -0.640625 2.8125 -0.640625 C 3.0625 -0.640625 3.285156 -0.675781 3.484375 -0.75 C 3.691406 -0.832031 3.863281 -0.945312 4 -1.09375 C 4.144531 -1.25 4.253906 -1.429688 4.328125 -1.640625 C 4.410156 -1.859375 4.453125 -2.097656 4.453125 -2.359375 L 4.453125 -3.359375 L 3.65625 -3.3125 C 3.3125 -3.300781 3.019531 -3.257812 2.78125 -3.1875 C 2.550781 -3.113281 2.363281 -3.015625 2.21875 -2.890625 C 2.070312 -2.765625 1.96875 -2.609375 1.90625 -2.421875 C 1.84375 -2.242188 1.8125 -2.03125 1.8125 -1.78125 Z M 3.3125 -6.109375 C 3.070312 -6.109375 2.878906 -6.078125 2.734375 -6.015625 C 2.585938 -5.953125 2.472656 -5.859375 2.390625 -5.734375 C 2.304688 -5.617188 2.25 -5.476562 2.21875 -5.3125 C 2.1875 -5.144531 2.171875 -4.96875 2.171875 -4.78125 C 1.835938 -4.78125 1.578125 -4.835938 1.390625 -4.953125 C 1.210938 -5.066406 1.125 -5.265625 1.125 -5.546875 C 1.125 -5.765625 1.179688 -5.945312 1.296875 -6.09375 C 1.421875 -6.238281 1.582031 -6.359375 1.78125 -6.453125 C 1.988281 -6.546875 2.222656 -6.613281 2.484375 -6.65625 C 2.753906 -6.707031 3.046875 -6.734375 3.359375 -6.734375 C 3.734375 -6.734375 4.0625 -6.691406 4.34375 -6.609375 C 4.625 -6.535156 4.859375 -6.414062 5.046875 -6.25 C 5.234375 -6.082031 5.375 -5.863281 5.46875 -5.59375 C 5.5625 -5.320312 5.609375 -4.988281 5.609375 -4.59375 L 5.609375 -1.40625 C 5.609375 -1.226562 5.617188 -1.082031 5.640625 -0.96875 C 5.671875 -0.863281 5.71875 -0.773438 5.78125 -0.703125 C 5.84375 -0.640625 5.921875 -0.59375 6.015625 -0.5625 C 6.117188 -0.53125 6.238281 -0.515625 6.375 -0.515625 L 6.40625 -0.515625 L 6.40625 0 L 4.75 0 L 4.546875 -1.0625 L 4.453125 -1.0625 C 4.316406 -0.882812 4.1875 -0.722656 4.0625 -0.578125 C 3.945312 -0.441406 3.816406 -0.316406 3.671875 -0.203125 C 3.535156 -0.0976562 3.375 -0.0195312 3.1875 0.03125 C 3 0.09375 2.78125 0.125 2.53125 0.125 C 2.257812 0.125 2.003906 0.0820312 1.765625 0 C 1.535156 -0.0703125 1.332031 -0.191406 1.15625 -0.359375 C 0.988281 -0.523438 0.851562 -0.726562 0.75 -0.96875 C 0.65625 -1.21875 0.609375 -1.507812 0.609375 -1.84375 C 0.609375 -2.5 0.84375 -2.984375 1.3125 -3.296875 C 1.78125 -3.617188 2.484375 -3.796875 3.421875 -3.828125 L 4.453125 -3.859375 L 4.453125 -4.59375 C 4.453125 -4.820312 4.4375 -5.023438 4.40625 -5.203125 C 4.382812 -5.390625 4.332031 -5.550781 4.25 -5.6875 C 4.175781 -5.820312 4.0625 -5.925781 3.90625 -6 C 3.757812 -6.070312 3.5625 -6.109375 3.3125 -6.109375 Z M 3.3125 -6.109375 "/></g></g></g><g fill="#e6b3b2" fill-opacity="1"><g transform="translate(116.890965, 20.923657)"><g><path d="M 3.96875 0 L 0.40625 0 L 0.40625 -0.515625 L 0.453125 -0.515625 C 0.585938 -0.515625 0.710938 -0.523438 0.828125 -0.546875 C 0.953125 -0.566406 1.0625 -0.609375 1.15625 -0.671875 C 1.25 -0.734375 1.320312 -0.820312 1.375 -0.9375 C 1.425781 -1.050781 1.453125 -1.207031 1.453125 -1.40625 L 1.453125 -5.25 C 1.453125 -5.425781 1.425781 -5.566406 1.375 -5.671875 C 1.320312 -5.785156 1.25 -5.875 1.15625 -5.9375 C 1.0625 -6 0.953125 -6.039062 0.828125 -6.0625 C 0.710938 -6.082031 0.585938 -6.09375 0.453125 -6.09375 L 0.40625 -6.09375 L 0.40625 -6.609375 L 2.3125 -6.609375 L 2.546875 -5.390625 L 2.59375 -5.390625 C 2.675781 -5.578125 2.757812 -5.75 2.84375 -5.90625 C 2.925781 -6.070312 3.03125 -6.210938 3.15625 -6.328125 C 3.28125 -6.453125 3.429688 -6.550781 3.609375 -6.625 C 3.785156 -6.695312 4.015625 -6.734375 4.296875 -6.734375 C 4.742188 -6.734375 5.078125 -6.65625 5.296875 -6.5 C 5.515625 -6.34375 5.625 -6.117188 5.625 -5.828125 C 5.625 -5.703125 5.601562 -5.582031 5.5625 -5.46875 C 5.519531 -5.363281 5.453125 -5.269531 5.359375 -5.1875 C 5.265625 -5.113281 5.144531 -5.054688 5 -5.015625 C 4.851562 -4.972656 4.675781 -4.953125 4.46875 -4.953125 C 4.46875 -5.296875 4.421875 -5.539062 4.328125 -5.6875 C 4.234375 -5.84375 4.066406 -5.921875 3.828125 -5.921875 C 3.671875 -5.921875 3.53125 -5.875 3.40625 -5.78125 C 3.289062 -5.695312 3.1875 -5.582031 3.09375 -5.4375 C 3.007812 -5.300781 2.9375 -5.140625 2.875 -4.953125 C 2.8125 -4.765625 2.757812 -4.570312 2.71875 -4.375 C 2.675781 -4.1875 2.644531 -3.992188 2.625 -3.796875 C 2.613281 -3.609375 2.609375 -3.4375 2.609375 -3.28125 L 2.609375 -1.34375 C 2.609375 -1.164062 2.632812 -1.019531 2.6875 -0.90625 C 2.75 -0.789062 2.820312 -0.707031 2.90625 -0.65625 C 3 -0.601562 3.109375 -0.566406 3.234375 -0.546875 C 3.359375 -0.523438 3.488281 -0.515625 3.625 -0.515625 L 3.96875 -0.515625 Z M 3.96875 0 "/></g></g></g><g clip-path="url(#5b3b7fe667)"><path fill="#e6b3b2" d="M 29.089844 15.808594 C 28.746094 15.601562 28.371094 15.4375 27.992188 15.289062 C 22.941406 13.355469 17.792969 13.09375 12.574219 14.464844 C 11.40625 14.773438 10.289062 15.277344 9.160156 15.726562 C 8.980469 15.800781 8.839844 16.058594 8.765625 16.265625 C 8.738281 16.339844 8.941406 16.59375 9.066406 16.613281 C 10.417969 16.84375 11.074219 17.761719 11.40625 19.050781 C 11.984375 18.84375 12.769531 19.53125 13.058594 18.484375 C 13.375 17.351562 14.214844 16.789062 15.308594 16.652344 C 16.296875 16.527344 17.4375 17.242188 17.800781 18.285156 C 18.046875 18.988281 18.445312 19.0625 19.058594 19.0625 C 19.675781 19.0625 20.070312 18.984375 20.308594 18.28125 C 20.675781 17.183594 21.621094 16.664062 22.714844 16.660156 C 23.660156 16.65625 24.578125 17.121094 24.859375 18.058594 C 24.933594 18.300781 25.019531 18.488281 25.121094 18.632812 C 25.480469 19.148438 26.019531 19.117188 26.679688 18.976562 C 26.777344 18.730469 26.859375 18.523438 26.9375 18.347656 C 26.941406 18.34375 26.941406 18.335938 26.945312 18.332031 C 26.972656 18.265625 27 18.207031 27.027344 18.148438 C 27.304688 17.558594 27.542969 17.339844 28.242188 16.996094 C 28.464844 16.890625 28.730469 16.769531 29.058594 16.621094 C 29.578125 16.386719 29.519531 16.070312 29.089844 15.808594 Z M 30.050781 18.265625 C 27.984375 23.105469 25.765625 27.882812 22.449219 32.035156 C 22.117188 32.449219 21.769531 32.855469 21.394531 33.230469 C 21 33.625 20.660156 33.574219 20.550781 32.980469 C 20.460938 32.492188 20.433594 31.988281 20.394531 31.605469 C 20.546875 29.613281 20.757812 27.738281 20.8125 25.859375 C 20.847656 24.652344 20.792969 23.402344 20.523438 22.226562 C 20.050781 20.164062 18.445312 19.714844 16.929688 21.171875 C 16.425781 21.652344 16.007812 22.285156 15.71875 22.929688 C 14.941406 24.667969 14.261719 26.457031 13.515625 28.214844 C 13.390625 28.507812 13.144531 28.746094 12.953125 29.011719 C 12.691406 28.804688 12.332031 28.652344 12.183594 28.382812 C 11.257812 26.683594 10.289062 24.996094 9.507812 23.226562 C 8.597656 21.167969 7.886719 19.023438 7.046875 16.933594 C 6.78125 16.28125 7 15.980469 7.542969 15.667969 C 9.773438 14.390625 12.183594 13.683594 14.703125 13.339844 C 19.4375 12.6875 24.117188 12.878906 28.585938 14.730469 C 31.632812 15.992188 31.195312 15.578125 30.050781 18.265625 Z M 34.238281 17.15625 C 27.210938 8.882812 10.164062 9.21875 3.613281 17.160156 C 4.199219 16.339844 4.730469 15.472656 5.394531 14.71875 C 5.800781 14.253906 5.878906 13.847656 5.742188 13.285156 C 5.105469 10.679688 4.910156 8.023438 5.066406 5.347656 C 5.246094 2.222656 7.4375 0.703125 10.425781 1.636719 C 11.226562 1.886719 12.019531 2.191406 12.773438 2.5625 C 14.4375 3.386719 16.175781 3.738281 18.023438 3.640625 C 18.308594 3.625 18.601562 3.8125 18.890625 3.90625 C 18.695312 4.160156 18.550781 4.554688 18.296875 4.640625 C 17.1875 5.03125 16.054688 5.351562 14.917969 5.652344 C 14.46875 5.773438 13.980469 5.730469 13.53125 5.84375 C 13.25 5.914062 13.007812 6.128906 12.746094 6.28125 C 12.996094 6.410156 13.253906 6.660156 13.496094 6.652344 C 14.796875 6.597656 16.105469 6.535156 17.394531 6.371094 C 19.445312 6.105469 21.152344 5.117188 22.636719 3.691406 C 23.355469 3 24.101562 2.328125 24.859375 1.679688 C 26.832031 0 29.617188 0.269531 31.273438 2.253906 C 32.832031 4.121094 32.980469 6.3125 32.671875 8.570312 C 32.472656 10.023438 32.144531 11.464844 31.792969 12.894531 C 31.636719 13.53125 31.679688 13.945312 32.167969 14.460938 C 32.9375 15.28125 33.554688 16.25 34.238281 17.15625 " fill-opacity="1" fill-rule="nonzero"/></g></svg>